<?xml version="1.0" encoding="UTF-8"?>
    <svg version="1.1" xmlns="http://www.w3.org/2000/svg" width="60" height="60">
    <path d="M0 0 C0.69931641 -0.020625 1.39863281 -0.04125 2.11914062 -0.0625 C6.93657559 -0.0985519 10.06875506 0.79922633 14.1875 3.25 C15.156875 3.806875 16.12625 4.36375 17.125 4.9375 C23.38366033 9.66342719 28.70117414 15.35389389 30.1875 23.25 C31.23052032 33.40641034 29.83552142 41.93386622 23.4375 50.0625 C18.35181855 55.5215606 11.45309471 59.75521185 3.98828125 60.62109375 C-6.0809183 60.81278064 -11.85387305 58.58753737 -20.0625 53.0625 C-27.85570679 45.09217488 -30.2077023 37.45608562 -30.0859375 26.5703125 C-29.39547827 18.18616475 -24.8767376 11.86186503 -18.8125 6.25 C-12.6289738 1.66918923 -7.71792688 0.05597771 0 0 Z M-16.46484375 19.41015625 C-20.10526662 24.38012486 -19.42158109 30.33222353 -18.8125 36.25 C-16.7325687 41.9787763 -13.15170811 45.34825646 -7.8125 48.25 C-2.03537021 50.17570993 3.9974294 50.15187619 9.5625 47.5625 C14.15651982 44.9413153 17.29653642 41.19559707 19.1875 36.25 C20.81729889 29.18753816 19.83040031 24.02239428 16.1875 17.875 C14.29072838 15.26394978 14.29072838 15.26394978 12.1875 13.25 C12.1875 12.92 12.1875 12.59 12.1875 12.25 C0.0459175 9.22809502 -8.16153975 9.2532673 -16.46484375 19.41015625 Z " fill="#FFFFFF" transform="translate(29.8125,-0.25)"/>
    <path d="M0 0 C2.96044008 1.65504918 5.20641934 3.09036125 6.6875 6.25 C6.4090625 7.24 6.4090625 7.24 6.125 8.25 C5.980625 8.91 5.83625 9.57 5.6875 10.25 C6.3475 10.8275 7.0075 11.405 7.6875 12 C9.6875 14.25 9.6875 14.25 9.6875 18.125 C8.49752913 24.52704325 4.90026911 28.54619037 -0.3125 32.25 C-4.49615063 34.34182531 -9.75657619 33.67935408 -14.3125 33.25 C-19.59251186 30.70427999 -22.64520462 27.02882563 -25.625 22.0625 C-26.8557246 17.02771754 -26.50276901 11.9588881 -24.40625 7.1875 C-18.88126909 -1.47328089 -9.22530298 -4.25004817 0 0 Z M-14.375 10.875 C-15.60294233 13.98578724 -15.86507826 15.93453042 -15.3125 19.25 C-13.3026643 21.84121904 -13.3026643 21.84121904 -10.3125 23.25 C-7.06956416 23.11382428 -7.06956416 23.11382428 -4.3125 22.25 C-4.3125 21.92 -4.3125 21.59 -4.3125 21.25 C-6.9525 20.92 -9.5925 20.59 -12.3125 20.25 C-12.5 16.875 -12.5 16.875 -12.3125 13.25 C-9.12487635 11.12491756 -7.04737777 10.7479837 -3.3125 10.25 C-3.3125 9.92 -3.3125 9.59 -3.3125 9.25 C-9.22006153 8.59850041 -9.22006153 8.59850041 -14.375 10.875 Z " fill="#FFFFFF" transform="translate(38.3125,13.75)"/>
</svg>
